<?xml version="1.0" encoding="UTF-8" standalone="no"?>
<svg
   xmlns:dc="http://purl.org/dc/elements/1.1/"
   xmlns:cc="http://creativecommons.org/ns#"
   xmlns:rdf="http://www.w3.org/1999/02/22-rdf-syntax-ns#"
   xmlns:svg="http://www.w3.org/2000/svg"
   xmlns="http://www.w3.org/2000/svg"
   xmlns:sodipodi="http://sodipodi.sourceforge.net/DTD/sodipodi-0.dtd"
   xmlns:inkscape="http://www.inkscape.org/namespaces/inkscape"
   width="210mm"
   height="297mm"
   viewBox="0 0 210 297"
   version="1.1"
   id="svg911"
   inkscape:version="1.0.2-2 (e86c870879, 2021-01-15)"
   sodipodi:docname="7.svg">
  <defs
     id="defs905">
    <marker
       style="overflow:visible"
       id="Arrow1Lstart"
       refX="0.0"
       refY="0.0"
       orient="auto"
       inkscape:stockid="Arrow1Lstart"
       inkscape:isstock="true">
      <path
         transform="scale(0.8) translate(12.5,0)"
         style="fill-rule:evenodd;stroke:#e70000;stroke-width:1pt;stroke-opacity:1;fill:#e70000;fill-opacity:1"
         d="M 0.0,0.0 L 5.0,-5.0 L -12.5,0.0 L 5.0,5.0 L 0.0,0.0 z "
         id="path2022" />
    </marker>
  </defs>
  <sodipodi:namedview
     id="base"
     pagecolor="#ffffff"
     bordercolor="#666666"
     borderopacity="1.0"
     inkscape:pageopacity="0.0"
     inkscape:pageshadow="2"
     inkscape:zoom="0.9899495"
     inkscape:cx="227.78874"
     inkscape:cy="104.86298"
     inkscape:document-units="mm"
     inkscape:current-layer="layer1"
     inkscape:document-rotation="0"
     showgrid="false"
     inkscape:window-width="1024"
     inkscape:window-height="547"
     inkscape:window-x="-8"
     inkscape:window-y="-8"
     inkscape:window-maximized="1"
     showguides="false" />
  <metadata
     id="metadata908">
    <rdf:RDF>
      <cc:Work
         rdf:about="">
        <dc:format>image/svg+xml</dc:format>
        <dc:type
           rdf:resource="http://purl.org/dc/dcmitype/StillImage" />
        <dc:title />
      </cc:Work>
    </rdf:RDF>
  </metadata>
  <g
     inkscape:label="Layer 1"
     inkscape:groupmode="layer"
     id="layer1"
     style="display:inline">
    <path
       style="display:inline;fill:none;stroke:#fa0000;stroke-width:1;stroke-linecap:butt;stroke-linejoin:miter;stroke-miterlimit:4;stroke-dasharray:none;stroke-opacity:1"
       d="m 54.97336,15.157998 c 0.463491,-0.430382 1.489798,-1.489791 1.489798,-1.489791 0.286309,-0.272618 0.438992,-0.634323 0.198641,-1.258051 -0.761452,-0.529743 -1.522905,-0.435244 -2.284356,-0.364171 -0.168344,0.28893 -0.458597,0.42547 -0.297961,1.125622 l 0.231747,0.595921 c 0.733806,0.386132 1.095886,0.02881 1.589112,-0.06622"
       id="path1990"
       sodipodi:nodetypes="ccccccc" />
    <path
       style="display:inline;fill:none;stroke:#ef0000;stroke-width:1;stroke-linecap:butt;stroke-linejoin:miter;stroke-miterlimit:4;stroke-dasharray:none;stroke-opacity:1"
       d="m 66.472005,46.72076 v 0 c 0.02078,-1.180819 0.05378,-2.365717 0.930609,-3.831892 l -2.745477,-0.05481 0.0096,1.060739 2.101458,0.08295"
       id="path2000"
       sodipodi:nodetypes="cccc" />
    <path
       style="display:inline;fill:none;stroke:#f40000;stroke-width:1;stroke-linecap:butt;stroke-linejoin:miter;stroke-miterlimit:4;stroke-dasharray:none;stroke-opacity:1"
       d="m 19.530958,12.178873 3.138186,-0.289676"
       id="path2344" />
    <path
       style="display:inline;fill:none;stroke:#f60000;stroke-width:1;stroke-linecap:butt;stroke-linejoin:miter;stroke-miterlimit:4;stroke-dasharray:none;stroke-opacity:1"
       d="m 9.6143146,48.662627 v -0.06547 C 9.6116845,47.961624 9.7621589,47.350604 9.2461981,46.632898 8.6993565,45.811777 9.0768235,45.155053 9.4916084,44.504968 H 6.8797415 l -0.085207,0.919088 1.5250564,-0.03911 c 0,0 0.1564155,1.212225 0.1955196,1.368642 0.039106,0.156415 0.3128326,0.664767 0.3519359,0.821184 0.039106,0.156415 0.039106,1.055808 0.039106,1.055808 l 0.3128319,0.03911 z"
       id="path1992"
       sodipodi:nodetypes="ccccc" />
    <path
       style="display:inline;fill:none;stroke:#f00000;stroke-width:1;stroke-linecap:butt;stroke-linejoin:miter;stroke-miterlimit:4;stroke-dasharray:none;stroke-opacity:1"
       d="m 38.377562,69.000758 0.432116,-0.864232 v -0.720192 c -0.380391,-0.267781 -0.966325,-0.330022 -2.016539,0.07203 l 0.07201,-0.612164 -0.360095,-0.756197 c 0.759806,-0.05103 2.114691,0.03189 2.114691,0.03189 0,0 0.02765,0.635965 0.138253,0.635965 0.110604,0 0.857173,1.050729 0.857173,1.050729 L 39.089807,69.13817 H 38.8133 38.78565 Z"
       id="path1994"
       sodipodi:nodetypes="cccccc" />
    <path
       style="display:inline;fill:none;stroke:#f30000;stroke-width:1;stroke-linecap:butt;stroke-linejoin:miter;stroke-miterlimit:4;stroke-dasharray:none;stroke-opacity:1"
       d="m 18.721324,13.999214 0.917316,-0.09657 0.04828,-1.882912 -0.434517,-0.14484 -0.19312,-0.965593 h 3.524422 l -0.193117,0.675916 0.386238,2.076025"
       id="path1988" />
  </g>
  <g
     inkscape:groupmode="layer"
     id="layer3"
     inkscape:label="Layer 2"
     style="display:inline">
    <path
       style="display:inline;fill:none;stroke:#f60000;stroke-width:4;stroke-linecap:butt;stroke-linejoin:miter;stroke-miterlimit:4;stroke-dasharray:none;stroke-opacity:1"
       d="m 17.902344,42.869644 c 2.276298,0.02414 5.384274,-0.09421 7.39518,-0.07164 26.330861,0.29559 30.59086,0.45624 30.59086,0.45624 h 0.0668 C 53.14951,41.11659 26.963197,21.142848 26.963197,21.142848 v 0 l 10.588088,34.903948 0.01015,-0.03599 11.17914,-34.801145 v 0 z"
       id="path1544-8"
       sodipodi:nodetypes="cscccccccc" />
    <circle
       style="display:inline;fill:none;stroke:#eb0000;stroke-width:3.945;stroke-linecap:round;stroke-linejoin:round;stroke-miterlimit:4;stroke-dasharray:none;stroke-opacity:1"
       id="path1964"
       cx="36.681534"
       cy="37.00367"
       r="25.1409" />
    <circle
       style="display:inline;fill:none;stroke:#eb0000;stroke-width:4;stroke-linecap:round;stroke-linejoin:round;stroke-miterlimit:4;stroke-dasharray:none;stroke-opacity:1"
       id="circle1986"
       cx="37.110149"
       cy="37.432285"
       r="34.597645" />
    <path
       style="fill:none;stroke:#000000;stroke-width:0.264583px;stroke-linecap:butt;stroke-linejoin:miter;stroke-opacity:1"
       d="M -42.002601,144.48139 Z"
       id="path1996" />
    <path
       style="display:inline;fill:none;stroke:#000000;stroke-width:0.264583px;stroke-linecap:butt;stroke-linejoin:miter;stroke-opacity:1"
       d="M -42.002601,144.48139 Z"
       id="path1998" />
  </g>
</svg>
