<?xml version="1.0" encoding="UTF-8" standalone="no"?>
<svg
   xmlns:dc="http://purl.org/dc/elements/1.1/"
   xmlns:cc="http://creativecommons.org/ns#"
   xmlns:rdf="http://www.w3.org/1999/02/22-rdf-syntax-ns#"
   xmlns:svg="http://www.w3.org/2000/svg"
   xmlns="http://www.w3.org/2000/svg"
   xmlns:sodipodi="http://sodipodi.sourceforge.net/DTD/sodipodi-0.dtd"
   xmlns:inkscape="http://www.inkscape.org/namespaces/inkscape"
   width="210mm"
   height="297mm"
   viewBox="0 0 210 297"
   version="1.1"
   id="svg911"
   inkscape:version="1.0.2-2 (e86c870879, 2021-01-15)"
   sodipodi:docname="drawing666.svg">
  <defs
     id="defs905">
    <marker
       style="overflow:visible"
       id="Arrow1Lstart"
       refX="0.0"
       refY="0.0"
       orient="auto"
       inkscape:stockid="Arrow1Lstart"
       inkscape:isstock="true">
      <path
         transform="scale(0.8) translate(12.5,0)"
         style="fill-rule:evenodd;stroke:#e70000;stroke-width:1pt;stroke-opacity:1;fill:#e70000;fill-opacity:1"
         d="M 0.0,0.0 L 5.0,-5.0 L -12.5,0.0 L 5.0,5.0 L 0.0,0.0 z "
         id="path2022" />
    </marker>
  </defs>
  <sodipodi:namedview
     id="base"
     pagecolor="#ffffff"
     bordercolor="#666666"
     borderopacity="1.0"
     inkscape:pageopacity="0.0"
     inkscape:pageshadow="2"
     inkscape:zoom="0.98994949"
     inkscape:cx="108.02992"
     inkscape:cy="125.21515"
     inkscape:document-units="mm"
     inkscape:current-layer="layer1"
     inkscape:document-rotation="0"
     showgrid="false"
     inkscape:window-width="1024"
     inkscape:window-height="547"
     inkscape:window-x="-8"
     inkscape:window-y="-8"
     inkscape:window-maximized="1"
     showguides="false" />
  <metadata
     id="metadata908">
    <rdf:RDF>
      <cc:Work
         rdf:about="">
        <dc:format>image/svg+xml</dc:format>
        <dc:type
           rdf:resource="http://purl.org/dc/dcmitype/StillImage" />
        <dc:title></dc:title>
      </cc:Work>
    </rdf:RDF>
  </metadata>
  <g
     inkscape:label="Layer 1"
     inkscape:groupmode="layer"
     id="layer1"
     style="display:inline">
    <path
       style="fill:none;stroke:#f70000;stroke-width:0.5;stroke-linecap:butt;stroke-linejoin:miter;stroke-miterlimit:4;stroke-dasharray:none;stroke-opacity:1"
       d="m 40.272435,41.73184 -0.06484,-1.380524 c 1.362213,-0.883263 1.739039,-2.470377 2.266924,-3.949589 -0.63623,-0.967022 -0.70014,-1.819578 -0.72448,-2.664221 h 0.02337"
       id="path1592"
       sodipodi:nodetypes="ccccc" />
    <path
       style="fill:none;stroke:#f40000;stroke-width:0.5;stroke-linecap:butt;stroke-linejoin:miter;stroke-miterlimit:4;stroke-dasharray:none;stroke-opacity:1"
       d="m 36.524758,41.780044 c 0.15432,-0.213814 0.617253,-1.807552 0.55695,-1.877906 v 0"
       id="path1604"
       sodipodi:nodetypes="ccc" />
    <path
       style="fill:none;stroke:#f30000;stroke-width:0.5;stroke-linecap:butt;stroke-linejoin:miter;stroke-miterlimit:4;stroke-dasharray:none;stroke-opacity:1"
       d="M 39.681922,41.848601 C 39.439265,41.744013 38.574786,39.979186 38.750768,39.93519"
       id="path1606"
       sodipodi:nodetypes="cc" />
    <path
       style="fill:none;stroke:#f30000;stroke-width:0.5;stroke-linecap:butt;stroke-linejoin:miter;stroke-miterlimit:4;stroke-dasharray:none;stroke-opacity:1"
       d="M 39.725761,39.869087 C 38.83882,39.504711 38.708226,39.053895 38.717718,39.042822 v 0"
       id="path1608"
       sodipodi:nodetypes="ccc" />
    <path
       style="fill:none;stroke:#f40000;stroke-width:0.5;stroke-linecap:butt;stroke-linejoin:miter;stroke-miterlimit:4;stroke-dasharray:none;stroke-opacity:1"
       d="m 36.266986,39.82128 c 0.273006,-0.116315 0.515983,-0.27601 0.677947,-0.552738 v 0"
       id="path1610"
       sodipodi:nodetypes="ccc" />
    <path
       style="fill:none;stroke:#ed0000;stroke-width:0.5;stroke-linecap:butt;stroke-linejoin:miter;stroke-miterlimit:4;stroke-dasharray:none;stroke-opacity:1"
       d="m 38.717718,39.042822 c 0.777067,0.22434 1.554135,-0.290924 2.331203,-1.122022"
       id="path1651"
       sodipodi:nodetypes="cc" />
    <path
       style="fill:none;stroke:#f30000;stroke-width:0.5;stroke-linecap:butt;stroke-linejoin:miter;stroke-miterlimit:4;stroke-dasharray:none;stroke-opacity:1"
       d="m 38.717718,39.042822 c -0.04019,-1.237649 1.08802,-1.90676 2.525375,-1.068315 l -0.268537,0.206567"
       id="path1655"
       sodipodi:nodetypes="ccc" />
    <ellipse
       style="fill:none;stroke:#f30000;stroke-width:0.5;stroke-miterlimit:4;stroke-dasharray:none;stroke-opacity:1"
       id="path1657"
       cx="39.64962"
       cy="38.276379"
       rx="0.17347267"
       ry="0.12090717" />
    <path
       style="fill:none;stroke:#f10000;stroke-width:0.5;stroke-linecap:butt;stroke-linejoin:miter;stroke-miterlimit:4;stroke-dasharray:none;stroke-opacity:1"
       d="m 37.449262,39.407586 c -0.184059,-1.345638 -0.951405,-2.68031 -2.304643,-1.972395 l -0.248023,0.170898"
       id="path1672"
       sodipodi:nodetypes="ccc" />
    <path
       style="fill:none;stroke:#f50000;stroke-width:0.5;stroke-linecap:butt;stroke-linejoin:miter;stroke-miterlimit:4;stroke-dasharray:none;stroke-opacity:1"
       d="m 37.300759,39.112837 c -0.0071,-5.19e-4 -0.12102,-0.01834 -0.127047,-0.02238 -0.413513,-0.276779 -1.657095,-0.567697 -2.025235,-1.624806"
       id="path1674"
       sodipodi:nodetypes="csc" />
    <ellipse
       style="fill:none;stroke:#f30000;stroke-width:0.5;stroke-miterlimit:4;stroke-dasharray:none;stroke-opacity:1"
       id="ellipse1676"
       cx="36.28054"
       cy="37.89217"
       rx="0.17347267"
       ry="0.12090717" />
    <path
       style="fill:none;stroke:#ef0000;stroke-width:0.5;stroke-linecap:butt;stroke-linejoin:miter;stroke-miterlimit:4;stroke-dasharray:none;stroke-opacity:1"
       d="m 40.160285,37.431761 c 0.544411,-0.06703 1.113734,-1.398119 1.024572,-1.48728"
       id="path1700"
       sodipodi:nodetypes="cc" />
    <path
       style="fill:none;stroke:#f00000;stroke-width:0.5;stroke-linecap:butt;stroke-linejoin:miter;stroke-miterlimit:4;stroke-dasharray:none;stroke-opacity:1"
       d="m 35.919128,37.231374 c -0.441912,-0.190427 -0.688647,-0.84921 -0.85302,-1.378851"
       id="path1702"
       sodipodi:nodetypes="cc" />
    <path
       style="fill:none;stroke:#ec0000;stroke-width:0.5;stroke-linecap:butt;stroke-linejoin:miter;stroke-miterlimit:4;stroke-dasharray:none;stroke-opacity:1"
       d="M 37.66022,38.224614 37.648534,37.24306 C 36.930826,36.118 36.233729,35.820228 35.849019,35.03456 l -0.381929,-0.511258 -0.132201,-0.92542 v 0.03306"
       id="path1704"
       sodipodi:nodetypes="cccccc" />
    <path
       style="fill:none;stroke:#f10000;stroke-width:0.5;stroke-linecap:butt;stroke-linejoin:miter;stroke-miterlimit:4;stroke-dasharray:none;stroke-opacity:1"
       d="m 38.444593,38.211466 0.01013,-0.982486 c 0.622674,-1.126128 1.227462,-1.424181 1.56123,-2.210594 l 0.331353,-0.511744 0.114696,-0.926297 v 0.03309"
       id="path1706"
       sodipodi:nodetypes="cccccc" />
    <path
       style="fill:none;stroke:#e70000;stroke-width:0.5;stroke-linecap:butt;stroke-linejoin:miter;stroke-miterlimit:4;stroke-dasharray:none;stroke-opacity:1;marker-mid:url(#Arrow1Lstart)"
       d="m 38.061568,36.96905 c 0,-0.04957 0.02479,-1.479018 0.02479,-1.479018"
       id="path1708" />
    <path
       style="fill:none;stroke:#ec0000;stroke-width:0.5;stroke-linecap:butt;stroke-linejoin:miter;stroke-miterlimit:4;stroke-dasharray:none;stroke-opacity:1"
       d="m 39.074126,34.123117 c 0.0516,0.03871 -0.769038,1.234425 -0.987768,1.366915 0.165915,-0.06034 -1.265969,-2.459495 -1.44275,-2.395211"
       id="path1710"
       sodipodi:nodetypes="ccc" />
    <path
       style="fill:none;stroke:#f60000;stroke-width:0.5;stroke-linecap:butt;stroke-linejoin:miter;stroke-miterlimit:4;stroke-dasharray:none;stroke-opacity:1"
       d="m 33.03296,36.607371 c 1.137036,-0.942588 1.367971,-2.469165 1.211255,-3.670502"
       id="path1712"
       sodipodi:nodetypes="cc" />
    <path
       style="fill:none;stroke:#fb0000;stroke-width:0.5;stroke-linecap:butt;stroke-linejoin:miter;stroke-miterlimit:4;stroke-dasharray:none;stroke-opacity:1"
       d="M 36.491661,33.994489 35.46709,32.0445 35.50015,32.01144"
       id="path1714" />
    <path
       style="fill:none;stroke:#f20000;stroke-width:0.5;stroke-linecap:butt;stroke-linejoin:miter;stroke-miterlimit:4;stroke-dasharray:none;stroke-opacity:1"
       d="m 35.477231,41.679834 -0.01383,-1.51548 c -1.064817,-0.828672 -1.203436,-1.921973 -1.425593,-2.991405"
       id="path1716"
       sodipodi:nodetypes="ccc" />
    <path
       style="fill:none;stroke:#eb0000;stroke-width:0.5;stroke-linecap:butt;stroke-linejoin:miter;stroke-miterlimit:4;stroke-dasharray:none;stroke-opacity:1"
       d="m 36.631923,31.353728 c 0.303815,0.304686 0.607629,0.43738 0.911444,1.145149 l -0.02337,0.630999 c 0.353456,-0.368395 0.777216,-0.508303 1.378852,-0.07011 v 0 l 0.04674,-1.612554"
       id="path1718"
       sodipodi:nodetypes="ccccc" />
    <path
       style="fill:none;stroke:#f80000;stroke-width:0.5;stroke-linecap:butt;stroke-linejoin:miter;stroke-miterlimit:4;stroke-dasharray:none;stroke-opacity:1"
       d="m 42.381031,31.534819 c 0.675571,-0.539687 3.026838,-4.358197 2.944667,-4.440369"
       id="path1720"
       sodipodi:nodetypes="cc" />
    <path
       style="fill:none;stroke:#f40000;stroke-width:0.5;stroke-linecap:butt;stroke-linejoin:miter;stroke-miterlimit:4;stroke-dasharray:none;stroke-opacity:1"
       d="m 41.250958,30.644139 c 1.135791,-0.270678 5.396662,-5.324377 4.892701,-5.302465"
       id="path1722"
       sodipodi:nodetypes="cc" />
    <path
       style="fill:none;stroke:#ef0000;stroke-width:0.5;stroke-linecap:round;stroke-linejoin:round;stroke-miterlimit:4;stroke-dasharray:none;stroke-opacity:1"
       d="m 40.259439,29.84266 0.669275,-0.462709 0.0661,0.834531 -0.03306,0.214826"
       id="path1724"
       sodipodi:nodetypes="cccc" />
    <path
       style="fill:none;stroke:#ec0000;stroke-width:0.5;stroke-linecap:butt;stroke-linejoin:round;stroke-miterlimit:4;stroke-dasharray:none;stroke-opacity:1"
       d="m 40.928714,29.379951 0.793215,-0.661014 0.01652,0.760166 v -0.02479"
       id="path1726" />
    <path
       style="fill:none;stroke:#ec0000;stroke-width:0.5;stroke-linecap:butt;stroke-linejoin:round;stroke-miterlimit:4;stroke-dasharray:none;stroke-opacity:1"
       d="m 41.721929,28.718937 0.717528,-0.52608 0.116853,0.560889 1.49e-4,-0.05959"
       id="path1728" />
    <path
       style="fill:none;stroke:#ec0000;stroke-width:0.5;stroke-linecap:butt;stroke-linejoin:round;stroke-miterlimit:4;stroke-dasharray:none;stroke-opacity:1"
       d="m 42.439457,28.192857 0.794542,-0.457177 0.01653,0.611438"
       id="path1730" />
    <path
       style="fill:none;stroke:#000000;stroke-width:0.5;stroke-linecap:butt;stroke-linejoin:miter;stroke-miterlimit:4;stroke-dasharray:none;stroke-opacity:1"
       d="M 43.250529,28.347118 Z"
       id="path1732" />
    <path
       style="fill:none;stroke:#000000;stroke-width:0.5;stroke-linecap:butt;stroke-linejoin:miter;stroke-miterlimit:4;stroke-dasharray:none;stroke-opacity:1"
       d="M 43.250529,28.347118 Z"
       id="path1734" />
    <path
       style="fill:none;stroke:#000000;stroke-width:0.5;stroke-linecap:butt;stroke-linejoin:miter;stroke-miterlimit:4;stroke-dasharray:none;stroke-opacity:1"
       d="M 43.250529,28.347118 Z"
       id="path1736" />
    <path
       style="fill:none;stroke:#ec0000;stroke-width:0.5;stroke-linecap:butt;stroke-linejoin:round;stroke-miterlimit:4;stroke-dasharray:none;stroke-opacity:1"
       d="m 43.233999,27.73568 0.793217,-0.578387 -0.148729,0.479235"
       id="path1738" />
    <path
       style="fill:none;stroke:#000000;stroke-width:0.5;stroke-linecap:butt;stroke-linejoin:miter;stroke-miterlimit:4;stroke-dasharray:none;stroke-opacity:1"
       d="M 43.878487,27.636528 Z"
       id="path1740" />
    <path
       style="fill:none;stroke:#000000;stroke-width:0.5;stroke-linecap:butt;stroke-linejoin:miter;stroke-miterlimit:4;stroke-dasharray:none;stroke-opacity:1"
       d="M 43.878487,27.636528 Z"
       id="path1742" />
    <path
       style="fill:none;stroke:#ec0000;stroke-width:0.5;stroke-linecap:butt;stroke-linejoin:round;stroke-miterlimit:4;stroke-dasharray:none;stroke-opacity:1"
       d="m 44.027216,27.157293 c 0.512285,-0.677539 2.116443,-1.815619 2.116443,-1.815619"
       id="path1744"
       sodipodi:nodetypes="cc" />
    <path
       style="fill:none;stroke:#ee0000;stroke-width:0.5;stroke-linecap:butt;stroke-linejoin:miter;stroke-miterlimit:4;stroke-dasharray:none;stroke-opacity:1"
       d="M 33.985199,30.576634 C 33.362424,30.464613 30.030026,26.705693 29.960874,26.401557"
       id="path1746"
       sodipodi:nodetypes="cc" />
    <path
       style="fill:none;stroke:#ee0000;stroke-width:0.5;stroke-linecap:butt;stroke-linejoin:miter;stroke-miterlimit:4;stroke-dasharray:none;stroke-opacity:1"
       d="M 33.050385,31.464707 C 31.951292,30.28061 31.379794,29.096511 30.619868,27.912412"
       id="path1748"
       sodipodi:nodetypes="cc" />
    <path
       style="fill:none;stroke:#ee0000;stroke-width:0.5;stroke-linecap:butt;stroke-linejoin:round;stroke-miterlimit:4;stroke-dasharray:none;stroke-opacity:1"
       d="m 34.793845,29.784821 -0.908896,-0.892367 0.08263,0.99152"
       id="path1750" />
    <path
       style="fill:none;stroke:#000000;stroke-width:0.5;stroke-linecap:butt;stroke-linejoin:miter;stroke-miterlimit:4;stroke-dasharray:none;stroke-opacity:1"
       d="M 33.967577,29.883974 Z"
       id="path1752" />
    <path
       style="fill:none;stroke:#000000;stroke-width:0.5;stroke-linecap:butt;stroke-linejoin:miter;stroke-miterlimit:4;stroke-dasharray:none;stroke-opacity:1"
       d="M 33.967577,29.883974 Z"
       id="path1754" />
    <path
       style="fill:none;stroke:#ee0000;stroke-width:0.5;stroke-linecap:butt;stroke-linejoin:round;stroke-miterlimit:4;stroke-dasharray:none;stroke-opacity:1"
       d="m 33.884949,28.892454 -0.941942,-0.578387 v 0.842792"
       id="path1756" />
    <path
       style="fill:none;stroke:#ee0000;stroke-width:0.5;stroke-linecap:butt;stroke-linejoin:round;stroke-miterlimit:4;stroke-dasharray:none;stroke-opacity:1"
       d="m 32.943007,28.314067 -0.859319,-0.611437 0.148729,1.074146"
       id="path1758" />
    <path
       style="fill:none;stroke:#ee0000;stroke-width:0.5;stroke-linecap:butt;stroke-linejoin:round;stroke-miterlimit:4;stroke-dasharray:none;stroke-opacity:1"
       d="m 32.083688,27.70263 -0.925419,-0.941945 v 0.627963 -0.04957 l -0.01652,0.08263"
       id="path1760" />
    <path
       style="fill:none;stroke:#ee0000;stroke-width:0.5;stroke-linecap:butt;stroke-linejoin:round;stroke-miterlimit:4;stroke-dasharray:none;stroke-opacity:1"
       d="m 31.158269,26.760685 -1.491283,-1.19555"
       id="path1762"
       sodipodi:nodetypes="cc" />
    <circle
       style="fill:none;stroke:#eb0000;stroke-width:5;stroke-linecap:round;stroke-linejoin:round;stroke-miterlimit:4;stroke-dasharray:none;stroke-opacity:1"
       id="path1808"
       cx="30.994049"
       cy="243.0387"
       r="24.190477" />
    <path
       style="display:inline;fill:none;stroke:#f30000;stroke-width:0.5;stroke-linecap:butt;stroke-linejoin:miter;stroke-miterlimit:4;stroke-dasharray:none;stroke-opacity:1"
       d="m 40.320716,36.361168 c 0.154225,0.373602 0.415129,0.533848 0.677443,0.691269"
       id="path1794"
       sodipodi:nodetypes="cc" />
    <path
       style="display:inline;fill:none;stroke:#f10000;stroke-width:0.5;stroke-linecap:butt;stroke-linejoin:miter;stroke-miterlimit:4;stroke-dasharray:none;stroke-opacity:1"
       d="m 35.825454,44.409627 0.488799,1.309984 c 0.09416,0.24002 0.310019,0.512574 0.508353,0.596337 v 0.01955"
       id="path1796"
       sodipodi:nodetypes="cccc" />
    <path
       style="display:inline;fill:none;stroke:#f60000;stroke-width:0.5;stroke-linecap:butt;stroke-linejoin:miter;stroke-miterlimit:4;stroke-dasharray:none;stroke-opacity:1"
       d="m 38.454778,46.168213 c 0.183228,-0.161296 0.357025,-0.322592 0.359459,-0.483888 l 0.09678,-0.663616 0.181406,-0.568314"
       id="path1798"
       sodipodi:nodetypes="cccc" />
    <path
       style="display:inline;fill:none;stroke:#f00000;stroke-width:0.5;stroke-linecap:butt;stroke-linejoin:miter;stroke-miterlimit:4;stroke-dasharray:none;stroke-opacity:1"
       d="m 36.328046,44.420204 c 0.160177,0.513184 0.344622,1.220353 0.827149,1.554454 v 0"
       id="path1800"
       sodipodi:nodetypes="ccc" />
    <path
       style="display:inline;fill:none;stroke:#ef0000;stroke-width:0.5;stroke-linecap:butt;stroke-linejoin:miter;stroke-miterlimit:4;stroke-dasharray:none;stroke-opacity:1"
       d="m 38.544151,44.484094 c -0.09453,0.514769 -0.195013,1.226969 -0.545609,1.449087"
       id="path1802"
       sodipodi:nodetypes="cc" />
    <path
       style="display:inline;fill:none;stroke:#ef0000;stroke-width:0.5;stroke-linecap:butt;stroke-linejoin:miter;stroke-miterlimit:4;stroke-dasharray:none;stroke-opacity:1"
       d="m 38.579207,46.486197 v 0 c 0.06771,0.04062 -0.950504,2.41874 -1.106029,2.502389 l -0.793197,-2.30016 c 0.804386,0.573132 1.204235,0.0998 1.899226,-0.202229 z"
       id="path1804"
       sodipodi:nodetypes="ccccc" />
    <path
       style="display:inline;fill:none;stroke:#eb0000;stroke-width:0.5;stroke-linecap:butt;stroke-linejoin:miter;stroke-miterlimit:4;stroke-dasharray:none;stroke-opacity:1"
       d="m 36.367149,46.375594 c 1.477384,-0.294871 1.758776,-0.05361 2.212058,0.110602 v 0"
       id="path1806"
       sodipodi:nodetypes="ccc" />
    <path
       style="display:inline;fill:none;stroke:#f30000;stroke-width:0.5;stroke-linecap:butt;stroke-linejoin:miter;stroke-miterlimit:4;stroke-dasharray:none;stroke-opacity:1"
       d="m 44.867249,37.696451 c 1.029233,0.297951 2.020742,0.803383 2.903325,1.9079 0.651309,0.671038 1.496253,0.877349 2.516215,0.663616 l 0.110604,-0.02765"
       id="path1780"
       sodipodi:nodetypes="cccc" />
    <path
       style="display:inline;fill:none;stroke:#f10000;stroke-width:0.5;stroke-linecap:butt;stroke-linejoin:miter;stroke-miterlimit:4;stroke-dasharray:none;stroke-opacity:1"
       d="m 44.701345,38.83013 h 1.354885 c 0.343446,0.06987 0.648534,0.273997 0.940125,0.525363 v 0"
       id="path1782"
       sodipodi:nodetypes="cccc" />
    <path
       style="display:inline;fill:none;stroke:#f30000;stroke-width:0.5;stroke-linecap:butt;stroke-linejoin:miter;stroke-miterlimit:4;stroke-dasharray:none;stroke-opacity:1"
       d="m 44.48014,39.991461 c 0.155035,0.18599 0.165902,0.516147 0.553015,0.470061 l 0.01383,-0.02765"
       id="path1784"
       sodipodi:nodetypes="ccc" />
    <path
       style="display:inline;fill:none;stroke:#f30000;stroke-width:0.5;stroke-linecap:butt;stroke-linejoin:miter;stroke-miterlimit:4;stroke-dasharray:none;stroke-opacity:1"
       d="m 44.604567,39.369319 c 0.26294,0.425184 0.5099,0.857216 1.023077,1.175157 v 0 -0.01383"
       id="path1786"
       sodipodi:nodetypes="cccc" />
    <path
       style="display:inline;fill:none;stroke:#f30000;stroke-width:0.5;stroke-linecap:butt;stroke-linejoin:miter;stroke-miterlimit:4;stroke-dasharray:none;stroke-opacity:1"
       d="m 45.30966,39.590525 c 0.160227,0.428948 0.473135,0.674678 0.815697,0.884823"
       id="path1788"
       sodipodi:nodetypes="cc" />
    <path
       style="display:inline;fill:none;stroke:#f30000;stroke-width:0.5;stroke-linecap:butt;stroke-linejoin:miter;stroke-miterlimit:4;stroke-dasharray:none;stroke-opacity:1"
       d="m 45.931802,39.5767 c 0.217335,0.430751 0.520104,0.711994 0.884823,0.884822"
       id="path1790"
       sodipodi:nodetypes="cc" />
    <path
       style="display:inline;fill:none;stroke:#f30000;stroke-width:0.5;stroke-linecap:butt;stroke-linejoin:miter;stroke-miterlimit:4;stroke-dasharray:none;stroke-opacity:1"
       d="m 46.62307,39.549048 c 0.153273,0.486824 0.466831,0.74925 0.801871,0.981601"
       id="path1792"
       sodipodi:nodetypes="cc" />
    <path
       style="display:inline;fill:none;stroke:#f00000;stroke-width:0.5;stroke-linecap:butt;stroke-linejoin:miter;stroke-miterlimit:4;stroke-dasharray:none;stroke-opacity:1"
       d="m 30.69726,37.725226 c -1.0529,0.150651 -2.476573,0.563349 -3.218795,1.490696 -0.534255,0.617664 -1.437011,1.268491 -2.424449,1.134017 l -1.012893,-0.267425"
       id="path1766"
       sodipodi:nodetypes="cccc" />
    <path
       style="display:inline;fill:none;stroke:#f00000;stroke-width:0.5;stroke-linecap:butt;stroke-linejoin:miter;stroke-miterlimit:4;stroke-dasharray:none;stroke-opacity:1"
       d="m 30.684994,38.844434 c -0.473279,-0.16597 -2.8732,0.607437 -2.776385,0.742977"
       id="path1768"
       sodipodi:nodetypes="cc" />
    <path
       style="display:inline;fill:none;stroke:#ef0000;stroke-width:0.5;stroke-linecap:butt;stroke-linejoin:miter;stroke-miterlimit:4;stroke-dasharray:none;stroke-opacity:1"
       d="m 29.844258,40.330386 c 0.407185,-0.205443 0.673927,-0.55133 0.860288,-0.977599 v -0.03911"
       id="path1770"
       sodipodi:nodetypes="ccc" />
    <path
       style="display:inline;fill:none;stroke:#ef0000;stroke-width:0.5;stroke-linecap:butt;stroke-linejoin:miter;stroke-miterlimit:4;stroke-dasharray:none;stroke-opacity:1"
       d="m 29.179489,40.428147 c 0.505718,-0.252007 0.762502,-0.574671 0.899393,-0.918945"
       id="path1772"
       sodipodi:nodetypes="cc" />
    <path
       style="display:inline;fill:none;stroke:#ef0000;stroke-width:0.5;stroke-linecap:butt;stroke-linejoin:miter;stroke-miterlimit:4;stroke-dasharray:none;stroke-opacity:1"
       d="m 28.573377,40.408595 c 0.376441,-0.183675 0.649516,-0.493683 0.860288,-0.87984"
       id="path1774"
       sodipodi:nodetypes="cc" />
    <path
       style="display:inline;fill:none;stroke:#ef0000;stroke-width:0.5;stroke-linecap:butt;stroke-linejoin:miter;stroke-miterlimit:4;stroke-dasharray:none;stroke-opacity:1"
       d="M 27.752192,40.46725 C 28.01297,40.346212 28.2288,40.12629 28.397409,39.802483"
       id="path1776"
       sodipodi:nodetypes="cc" />
    <path
       style="display:inline;fill:none;stroke:#ef0000;stroke-width:0.5;stroke-linecap:butt;stroke-linejoin:miter;stroke-miterlimit:4;stroke-dasharray:none;stroke-opacity:1"
       d="m 26.735489,40.56501 c 0.474966,-0.109698 0.642797,-0.267385 0.527904,-0.469249 h 0.01955 l -0.01955,0.05866"
       id="path1778"
       sodipodi:nodetypes="cccc" />
    <path
       style="display:inline;fill:none;stroke:#fa0000;stroke-width:0.5;stroke-linecap:butt;stroke-linejoin:miter;stroke-miterlimit:4;stroke-dasharray:none;stroke-opacity:1"
       d="m 54.97336,15.157998 c 0.463491,-0.430382 1.489798,-1.489791 1.489798,-1.489791 0.286309,-0.272618 0.438992,-0.634323 0.198641,-1.258051 -0.761452,-0.529743 -1.522905,-0.435244 -2.284356,-0.364171 -0.168344,0.28893 -0.458597,0.42547 -0.297961,1.125622 l 0.231747,0.595921 c 0.733806,0.386132 1.095886,0.02881 1.589112,-0.06622"
       id="path1990"
       sodipodi:nodetypes="ccccccc" />
    <path
       style="display:inline;fill:none;stroke:#ef0000;stroke-width:0.5;stroke-linecap:butt;stroke-linejoin:miter;stroke-miterlimit:4;stroke-dasharray:none;stroke-opacity:1"
       d="m 66.472005,46.72076 v 0 c 0.02078,-1.180819 0.05378,-2.365717 0.930609,-3.831892 l -2.745477,-0.05481 0.0096,1.060739 2.101458,0.08295"
       id="path2000"
       sodipodi:nodetypes="cccc" />
    <path
       style="display:inline;fill:none;stroke:#f40000;stroke-width:0.5;stroke-linecap:butt;stroke-linejoin:miter;stroke-miterlimit:4;stroke-dasharray:none;stroke-opacity:1"
       d="m 19.530958,12.178873 3.138186,-0.289676"
       id="path2344" />
    <path
       style="display:inline;fill:none;stroke:#f60000;stroke-width:0.5;stroke-linecap:butt;stroke-linejoin:miter;stroke-miterlimit:4;stroke-dasharray:none;stroke-opacity:1"
       d="m 9.6143146,48.662627 v -0.06547 C 9.6116845,47.961624 9.7621589,47.350604 9.2461981,46.632898 8.6993565,45.811777 9.0768235,45.155053 9.4916084,44.504968 H 6.8797415 l -0.085207,0.919088 1.5250564,-0.03911 c 0,0 0.1564155,1.212225 0.1955196,1.368642 0.039106,0.156415 0.3128326,0.664767 0.3519359,0.821184 0.039106,0.156415 0.039106,1.055808 0.039106,1.055808 l 0.3128319,0.03911 z"
       id="path1992"
       sodipodi:nodetypes="ccccc" />
    <path
       style="display:inline;fill:none;stroke:#f00000;stroke-width:0.5;stroke-linecap:butt;stroke-linejoin:miter;stroke-miterlimit:4;stroke-dasharray:none;stroke-opacity:1"
       d="m 38.377562,69.000758 0.432116,-0.864232 v -0.720192 c -0.380391,-0.267781 -0.966325,-0.330022 -2.016539,0.07203 l 0.07201,-0.612164 -0.360095,-0.756197 c 0.759806,-0.05103 2.114691,0.03189 2.114691,0.03189 0,0 0.02765,0.635965 0.138253,0.635965 0.110604,0 0.857173,1.050729 0.857173,1.050729 L 39.089807,69.13817 H 38.8133 38.78565 Z"
       id="path1994"
       sodipodi:nodetypes="cccccc" />
    <path
       style="display:inline;fill:none;stroke:#f30000;stroke-width:0.5;stroke-linecap:butt;stroke-linejoin:miter;stroke-miterlimit:4;stroke-dasharray:none;stroke-opacity:1"
       d="m 18.721324,13.999214 0.917316,-0.09657 0.04828,-1.882912 -0.434517,-0.14484 -0.19312,-0.965593 h 3.524422 l -0.193117,0.675916 0.386238,2.076025"
       id="path1988" />
  </g>
  <g
     inkscape:groupmode="layer"
     id="layer3"
     inkscape:label="Layer 2"
     style="display:inline">
    <path
       style="display:inline;fill:none;stroke:#f60000;stroke-width:4;stroke-linecap:butt;stroke-linejoin:miter;stroke-miterlimit:4;stroke-dasharray:none;stroke-opacity:1"
       d="m 17.902344,42.869644 c 2.276298,0.02414 5.384274,-0.09421 7.39518,-0.07164 26.330861,0.29559 30.59086,0.45624 30.59086,0.45624 h 0.0668 C 53.14951,41.11659 26.963197,21.142848 26.963197,21.142848 v 0 l 10.588088,34.903948 0.01015,-0.03599 11.17914,-34.801145 v 0 z"
       id="path1544-8"
       sodipodi:nodetypes="cscccccccc" />
    <circle
       style="display:inline;fill:none;stroke:#eb0000;stroke-width:4;stroke-linecap:round;stroke-linejoin:round;stroke-miterlimit:4;stroke-dasharray:none;stroke-opacity:1"
       id="path1964"
       cx="37.059509"
       cy="37.381645"
       r="25.491379" />
    <circle
       style="display:inline;fill:none;stroke:#eb0000;stroke-width:4;stroke-linecap:round;stroke-linejoin:round;stroke-miterlimit:4;stroke-dasharray:none;stroke-opacity:1"
       id="circle1986"
       cx="37.110149"
       cy="37.432285"
       r="34.597645" />
    <path
       style="fill:none;stroke:#000000;stroke-width:0.264583px;stroke-linecap:butt;stroke-linejoin:miter;stroke-opacity:1"
       d="M -42.002601,144.48139 Z"
       id="path1996" />
    <path
       style="display:inline;fill:none;stroke:#000000;stroke-width:0.264583px;stroke-linecap:butt;stroke-linejoin:miter;stroke-opacity:1"
       d="M -42.002601,144.48139 Z"
       id="path1998" />
  </g>
</svg>
