<?xml version="1.0" encoding="UTF-8" standalone="no"?>
<svg
   xmlns:inkstitch="http://inkstitch.org/namespace"
   xmlns:dc="http://purl.org/dc/elements/1.1/"
   xmlns:cc="http://creativecommons.org/ns#"
   xmlns:rdf="http://www.w3.org/1999/02/22-rdf-syntax-ns#"
   xmlns:svg="http://www.w3.org/2000/svg"
   xmlns="http://www.w3.org/2000/svg"
   xmlns:sodipodi="http://sodipodi.sourceforge.net/DTD/sodipodi-0.dtd"
   xmlns:inkscape="http://www.inkscape.org/namespaces/inkscape"
   sodipodi:docname="colores.svg"
   id="svg1087"
   version="1.1"
   viewBox="0 0 210 297"
   height="297mm"
   width="210mm"
   inkscape:version="1.0 (4035a4fb49, 2020-05-01)">
  <defs
     id="defs1081" />
  <sodipodi:namedview
     id="base"
     pagecolor="#ffffff"
     bordercolor="#666666"
     borderopacity="1.0"
     inkscape:pageopacity="0.0"
     inkscape:pageshadow="2"
     inkscape:zoom="1.1384419"
     inkscape:cx="79.628577"
     inkscape:cy="164.63656"
     inkscape:document-units="mm"
     inkscape:current-layer="layer1"
     inkscape:document-rotation="0"
     showgrid="false"
     inkscape:window-width="1024"
     inkscape:window-height="705"
     inkscape:window-x="-8"
     inkscape:window-y="-8"
     inkscape:window-maximized="1" />
  <metadata
     id="metadata1084">
    <rdf:RDF>
      <cc:Work
         rdf:about="">
        <dc:format>image/svg+xml</dc:format>
        <dc:type
           rdf:resource="http://purl.org/dc/dcmitype/StillImage" />
        <dc:title />
      </cc:Work>
    </rdf:RDF>
  </metadata>
  <g
     inkscape:label="Capa 1"
     inkscape:groupmode="layer"
     id="layer1">
    <path
       inkstitch:zigzag_spacing_mm="0.1"
       inkstitch:satin_column="True"
       d="m 46.845104,32.932108 14.191697,0.965034 M 47.24247,30.5479 63.13717,30.264068 M 47.299237,27.312195 63.818372,24.984756 m -16.462368,-0.3406 16.348834,-5.506378 M 47.583072,20.273114 61.888301,13.290801 M 47.24247,17.094175 59.27703,9.6009599 M 46.555146,14.290389 55.105003,6.623616 m -7.887545,6.181585 4.63619,-6.6632679 M 46.876266,4.0546442 46.635425,12.644641 M 41.738324,2.4088968 45.792482,12.243238 M 34.834212,0.68286923 44.829118,12.52422 M 30.467887,0.34797373 44.267155,13.286884 M 29.644767,3.9810484 44.460901,16.299439 m -15.286454,16.09417 15.092708,6.021025 m -15.81523,-18.3842 15.975789,10.677287 M 29.89697,9.6742683 45.150239,21.55576 m -15.80308,19.207801 15.79494,5.054605 m -15.270265,7.947351 14.305233,4.030443 m -0.975072,1.726816 0.222216,-47.038696 c 1.249952,-1.717962 3.734668,-1.361271 4.61612,0.280981 l 0.120421,21.876398 M 30.808486,55.4969 V 0.74534148 C 39.009943,2.9403922 47.766231,4.9504978 54.041288,7.7876818 66.440695,12.431338 65.898065,35.252395 54.111247,35.543381"
       style="fill:none;stroke:#ff0000;stroke-width:0.224785px;stroke-linecap:butt;stroke-linejoin:miter;stroke-opacity:1"
       id="path70" />
    <path
       sodipodi:nodetypes="cccccccccccccccccccccccccccccc"
       id="path1393"
       style="fill:none;stroke:#0000ff;stroke-width:0.224785px;stroke-linecap:butt;stroke-linejoin:miter;stroke-opacity:1"
       d="m 48.904993,37.321863 9.903215,6.003218 m 3.572474,1.083783 13.165976,5.137946 M 63.802631,43.130015 79.497439,47.264454 M 65.872878,43.445504 79.52054,43.164521 m -12.684298,-0.481683 9.27238,-3.572476 m -9.754062,3.010514 4.094298,-4.736542 m -5.097802,4.45556 2.20771,-5.459063 m -3.670728,0.04678 0.141917,5.250926 m -5.080627,-5.27931 3.860141,5.336077 m -9.508437,-5.052244 7.152617,6.017279 M 45.211766,39.124033 56.877341,43.580224 M 43.366844,40.287753 c 3.957385,-1.168222 8.111774,-2.531711 12.599374,-3.162316 17.175319,-1.829066 27.922234,4.600574 20.893026,10.258163 -1.342415,0.929319 -2.894004,1.440296 -4.385231,2.071986 M 54.372505,43.74343 c 2.271862,-0.81389 4.485467,-1.662734 7.017795,-2.320345 7.385857,-1.665951 7.672982,1.804526 3.150554,2.951873 l -3.831758,1.348213"
       inkstitch:satin_column="True"
       inkstitch:zigzag_spacing_mm="0.1" />
    <path
       id="path1515"
       style="fill:none;stroke:#0000ff;stroke-width:0.224785px;stroke-linecap:butt;stroke-linejoin:miter;stroke-opacity:1"
       d="m 30.027698,33.290037 -0.32112,2.990442 m -1.023575,-2.70946 -0.180631,2.448552 m -0.702452,-2.468624 -0.622175,2.087291 m 3.64364,0.675839 -3.964761,-1.237803 m 3.983913,-1.816341 -4.691766,1.595948"
       inkstitch:satin_column="True"
       inkstitch:zigzag_spacing_mm="0.1" />
    <path
       id="path2399"
       style="fill:none;stroke:#00ff00;stroke-width:0.224785px;stroke-linecap:butt;stroke-linejoin:miter;stroke-opacity:1"
       d="m 43.91794,50.880983 3.568991,3.910228 m -2.443316,-4.432873 6.771475,5.305488 m -5.096058,-5.898864 8.830837,6.631857 m -5.724335,-7.88842 6.562045,7.53937 m -2.233889,-8.795932 3.315929,8.516701 m -0.837707,-9.459123 1.884843,9.005362 m 0.872612,-10.192113 0.06981,10.227021 m 3.211212,-9.633644 -0.383948,8.586509 m 3.80459,-7.434663 -0.06981,6.213004 m 3.420644,-5.549817 0.209426,4.397967 m 1.640513,-1.867389 -10.820397,3.822041 -6.219108,1.864777 -11.018482,-3.522306 m 29.240197,-2.770578 -11.764917,-3.732414 -14.618345,5.001664 -2.774908,0.907518"
       inkstitch:satin_column="True"
       inkstitch:zigzag_spacing_mm="0.1" />
    <path
       id="path1246"
       style="fill:none;stroke:#00ff00;stroke-width:0.224785px;stroke-linecap:butt;stroke-linejoin:miter;stroke-opacity:1"
       d="m 51.68318,42.217824 1.192102,3.292472 m -2.611275,-3.746607 0.397371,3.803374 m -2.554507,-4.51296 0.141917,5.761827 m -1.788154,-6.357879 -0.141916,6.556566 m -1.703004,-6.868783 -0.113535,7.493217 M 43.233816,47.51973 53.690334,43.987393 M 43.253311,40.202601 54.372505,43.74343"
       inkstitch:satin_column="True"
       inkstitch:zigzag_spacing_mm="0.1" />
    <path
       id="path1268"
       style="fill:none;stroke:#00ff00;stroke-width:0.224785px;stroke-linecap:butt;stroke-linejoin:miter;stroke-opacity:1"
       d="m 28.963985,44.609567 1.264414,4.034087 m -2.669321,-3.532335 1.244345,3.010515 m -2.548901,-2.508761 0.883084,2.007009 m 3.652757,0.602101 -4.836892,-1.485185 m 4.896298,-2.13497 -5.729208,1.864022"
       inkstitch:satin_column="True"
       inkstitch:zigzag_spacing_mm="0.1" />
    <path
       id="path2276"
       style="fill:none;stroke:#00ff00;stroke-width:0.224785px;stroke-linecap:butt;stroke-linejoin:miter;stroke-opacity:1"
       d="m 22.718377,34.907645 -0.823753,9.398279 m 6.028379,-9.548054 -2.059384,8.761744 m 4.38087,-8.387311 0.149775,5.46673 m -1.1233,-5.803719 -1.684951,8.274979 m -2.658478,-8.799185 -1.909616,9.173619 m -1.759832,-8.499641 -0.861197,9.510612 m -1.647507,-8.349866 -1.310517,8.237536 m -2.770808,-6.702361 1.947054,6.552587 m -6.6274714,-4.867633 4.7927474,4.568087 m 16.040997,-7.579971 -4.672614,-1.458196 -5.896932,1.918644 -12.4216588,4.222426 m 22.9946828,-1.071898 -6.098505,2.224191 -6.400873,2.219482 -9.4055627,-2.974061 v 0"
       inkstitch:satin_column="True"
       inkstitch:zigzag_spacing_mm="0.1" />
    <path
       id="path1206"
       style="fill:none;stroke:#f6e509;stroke-width:0.224785px;stroke-linecap:butt;stroke-linejoin:miter;stroke-opacity:1"
       d="m 53.108301,54.865382 -0.401401,2.22778 m -1.585536,-2.9503 -0.602103,3.773178 M 48.873512,52.898514 48.2112,58.217089 m -1.946801,-5.740047 -0.963363,6.884042 m -0.802803,-7.446005 -0.762665,7.847406 M 43.201994,59.522776 53.72044,55.949166 M 43.233816,52.226164 54.252298,55.74847"
       inkstitch:satin_column="True"
       inkstitch:zigzag_spacing_mm="0.1" />
    <path
       sodipodi:nodetypes="cccccccccccccccccccccccccccccccccccc"
       id="path2080"
       style="fill:none;stroke:#f6e509;stroke-width:0.224785px;stroke-linecap:butt;stroke-linejoin:miter;stroke-opacity:1"
       d="m 5.3456022,40.613608 12.0997328,4.71281 M 2.671482,42.308102 16.227421,45.829468 M 1.135848,45.802996 14.983026,46.96796 M 0.81813103,48.874263 15.565509,47.523964 m -11.250666,4.950182 11.8861,-4.632467 m 1.05906,0.423623 -8.2652275,6.07772 m 13.7458485,-7.639829 -3.944988,7.863501 m 2.250497,-7.360449 -4.898141,7.14864 m 7.731119,-8.04884 -2.065162,8.313603 m 4.461281,-8.167981 -1.257632,7.691405 m 3.892039,-7.122161 -1.164964,6.327868 m 2.67412,-5.957198 -0.529529,5.454144 m 0.944958,-1.126019 c -2.135938,0.832984 -4.544677,1.338607 -7.17976,1.57262 -2.699994,0.430313 -5.04226,0.49134 -8.2112,0.39925 -2.693066,0.06461 -17.8128927,-1.552838 -12.6658747,-9.42422 1.3678639,-1.160447 2.4750601,-2.37882 5.0527929,-3.270408 m 19.7026808,5.600337 -1.059059,7.095686 m 4.316561,-5.470791 -5.669802,-1.756135 -6.722072,2.249354 c -2.591721,0.444141 -5.471188,-1.227407 -3.480235,-2.819078 0.469012,-0.509199 1.741243,-1.0184 3.407232,-1.527598"
       inkstitch:satin_column="True"
       inkstitch:zigzag_spacing_mm="0.1" />
  </g>
</svg>
