<?xml version="1.0" encoding="UTF-8" standalone="no"?>
<svg
   xmlns:inkstitch="http://inkstitch.org/namespace"
   xmlns:dc="http://purl.org/dc/elements/1.1/"
   xmlns:cc="http://creativecommons.org/ns#"
   xmlns:rdf="http://www.w3.org/1999/02/22-rdf-syntax-ns#"
   xmlns:svg="http://www.w3.org/2000/svg"
   xmlns="http://www.w3.org/2000/svg"
   xmlns:sodipodi="http://sodipodi.sourceforge.net/DTD/sodipodi-0.dtd"
   xmlns:inkscape="http://www.inkscape.org/namespaces/inkscape"
   inkscape:version="1.0 (4035a4fb49, 2020-05-01)"
   width="210mm"
   height="297mm"
   viewBox="0 0 210 297"
   version="1.1"
   id="svg1087"
   sodipodi:docname="colores.svg">
  <defs
     id="defs1081" />
  <sodipodi:namedview
     inkscape:guide-bbox="true"
     showguides="true"
     inkscape:window-maximized="1"
     inkscape:window-y="-8"
     inkscape:window-x="-8"
     inkscape:window-height="705"
     inkscape:window-width="1024"
     showgrid="false"
     inkscape:document-rotation="0"
     inkscape:current-layer="layer1"
     inkscape:document-units="mm"
     inkscape:cy="60.054176"
     inkscape:cx="78.703737"
     inkscape:zoom="1.61"
     inkscape:pageshadow="2"
     inkscape:pageopacity="0.0"
     borderopacity="1.0"
     bordercolor="#666666"
     pagecolor="#ffffff"
     id="base" />
  <metadata
     id="metadata1084">
    <rdf:RDF>
      <cc:Work
         rdf:about="">
        <dc:format>image/svg+xml</dc:format>
        <dc:type
           rdf:resource="http://purl.org/dc/dcmitype/StillImage" />
        <dc:title />
      </cc:Work>
    </rdf:RDF>
  </metadata>
  <g
     id="layer1"
     inkscape:groupmode="layer"
     inkscape:label="Capa 1">
    <path
       id="path70"
       style="fill:none;stroke:#ff0000;stroke-width:0.157937px;stroke-linecap:butt;stroke-linejoin:miter;stroke-opacity:1"
       d="m 32.113628,23.294591 9.971237,0.678044 M 32.392821,21.619422 43.560607,21.419999 M 32.432706,19.345981 44.039226,17.710698 M 32.472591,17.471388 43.959457,13.602549 M 32.632131,14.400248 42.683138,9.4944003 M 32.392821,12.166692 40.848431,6.9018808 M 31.909901,10.196722 37.91712,4.8099668 M 32.375248,9.1532136 35.632683,4.4715313 M 32.135523,3.0049799 31.966304,9.0404026 M 28.525549,1.8486602 31.374044,8.7583729 M 23.674646,0.63593503 30.697174,8.9557926 M 20.606821,0.40063386 30.302333,9.4916483 M 20.028489,2.9532707 30.438462,11.608301 M 19.698036,22.916237 30.302333,27.146673 M 19.190384,14.229738 30.415143,21.731714 M 20.205689,6.9533878 30.922798,15.301449 m -11.103412,13.495605 11.097692,3.551419 m -10.72905,5.583893 10.051009,2.831833 m -0.685096,1.213279 0.15613,-33.0498871 c 0.878231,-1.2070584 2.624018,-0.9564437 3.243335,0.1974197 L 33.038026,24.4956 M 20.846129,39.148854 V 0.67982873 C 26.608561,2.2220946 32.760821,3.6344162 37.169743,5.6278519 45.881699,8.8905329 45.500441,24.92485 37.218903,25.1293"
       inkstitch:satin_column="True"
       inkstitch:zigzag_spacing_mm="0.1" />
    <path
       inkstitch:zigzag_spacing_mm="0.1"
       inkstitch:satin_column="True"
       d="m 33.560927,26.37888 6.958105,4.217926 m 2.510058,0.761477 9.250555,3.609975 m -8.251478,-4.508508 11.027338,2.9049 m -9.572761,-2.683234 9.588993,-0.197422 m -8.912123,-0.338436 6.514872,-2.510059 m -6.853307,2.115219 2.876696,-3.327945 m -3.581769,3.130524 1.551161,-3.835596 m -2.579093,0.03287 0.09971,3.689356 m -3.569701,-3.709298 2.712175,3.749184 m -6.680728,-3.549761 5.025504,4.227805 m -10.70911,-2.512755 8.196358,3.130967 m -9.492617,-2.313322 c 2.780501,-0.820805 5.699419,-1.778808 8.852455,-2.221877 12.067561,-1.285121 19.618458,3.232412 14.679662,7.207495 -0.943196,0.652949 -2.033359,1.011968 -3.08111,1.455799 M 37.40246,30.890741 c 1.596235,-0.571847 3.151537,-1.168254 4.930777,-1.630299 5.189383,-1.170515 5.391119,1.267879 2.213612,2.074018 l -2.692233,0.947268"
       style="fill:none;stroke:#0000ff;stroke-width:0.157937px;stroke-linecap:butt;stroke-linejoin:miter;stroke-opacity:1"
       id="path1393"
       sodipodi:nodetypes="cccccccccccccccccccccccccccccc" />
    <path
       inkstitch:zigzag_spacing_mm="0.1"
       inkstitch:satin_column="True"
       d="m 20.29754,23.546077 -0.225622,2.101116 m -0.719176,-1.903696 -0.126913,1.720379 m -0.493551,-1.734482 -0.437146,1.466553 m 2.56006,0.474853 -2.785684,-0.869694 m 2.799141,-1.276181 -3.296485,1.12133"
       style="fill:none;stroke:#0000ff;stroke-width:0.157937px;stroke-linecap:butt;stroke-linejoin:miter;stroke-opacity:1"
       id="path1515" />
    <path
       inkstitch:zigzag_spacing_mm="0.1"
       inkstitch:satin_column="True"
       d="m 15.161932,24.682626 -0.578776,6.60333 m 4.235602,-6.708564 -1.446945,6.156094 m 3.078046,-5.893014 0.105233,3.840983 m -0.789242,-4.077756 -1.183865,5.814089 m -1.867874,-6.1824 -1.341716,6.445482 m -1.236478,-5.971939 -0.605086,6.682258 m -1.157556,-5.866705 -0.920784,5.787781 m -1.9467977,-4.709151 1.3680197,4.603918 m -4.6565327,-3.420051 3.367436,3.209587 M 20.855192,25.6708 l -3.283028,-1.024545 -4.143248,1.34806 -8.7275907,2.966721 m 16.1563107,-0.753127 -4.284875,1.56274 -4.497321,1.559432 -6.6084497,-2.089606 v 0"
       style="fill:none;stroke:#00ff00;stroke-width:0.157937px;stroke-linecap:butt;stroke-linejoin:miter;stroke-opacity:1"
       id="path2276" />
    <path
       inkstitch:zigzag_spacing_mm="0.1"
       inkstitch:satin_column="True"
       d="m 19.550164,31.499299 0.88839,2.834392 m -1.875493,-2.481857 0.874291,2.115221 m -1.790886,-1.762683 0.620464,1.410147 m 2.566467,0.423042 -3.398453,-1.043507 m 3.44019,-1.500052 -4.025401,1.309681"
       style="fill:none;stroke:#00ff00;stroke-width:0.157937px;stroke-linecap:butt;stroke-linejoin:miter;stroke-opacity:1"
       id="path1268" />
    <path
       inkstitch:zigzag_spacing_mm="0.1"
       inkstitch:satin_column="True"
       d="m 35.512912,29.818835 0.837583,2.313325 m -1.834709,-2.632405 0.279196,2.67229 m -1.794822,-3.170853 0.09971,4.04832 m -1.256375,-4.467113 -0.09971,4.606713 m -1.196549,-4.826081 -0.07976,5.264815 m -0.891173,-0.08384 7.346862,-2.481858 m -7.333164,-2.659235 7.812464,2.487825"
       style="fill:none;stroke:#00ff00;stroke-width:0.157937px;stroke-linecap:butt;stroke-linejoin:miter;stroke-opacity:1"
       id="path1246" />
    <path
       inkstitch:zigzag_spacing_mm="0.1"
       inkstitch:satin_column="True"
       d="m 30.056971,35.905661 2.507611,2.747369 m -1.716699,-3.114583 4.75771,3.727692 m -3.580545,-4.144605 6.20464,4.659613 m -4.021978,-5.542487 4.610563,5.297241 m -1.569555,-6.180116 2.329808,5.983926 m -0.588583,-6.64608 1.324312,6.327263 m 0.613105,-7.161088 0.04905,7.185614 m 2.256232,-6.768702 -0.269766,6.032974 m 2.673145,-5.223674 -0.04905,4.365323 m 2.403382,-3.899361 0.147144,3.090059 m 1.152642,-1.312048 -7.602526,2.685407 -4.369611,1.310213 -7.741703,-2.47481 m 20.544474,-1.946638 -8.266156,-2.622434 -10.271005,3.514224 -1.94968,0.637631"
       style="fill:none;stroke:#00ff00;stroke-width:0.157937px;stroke-linecap:butt;stroke-linejoin:miter;stroke-opacity:1"
       id="path2399" />
    <path
       inkstitch:zigzag_spacing_mm="0.1"
       inkstitch:satin_column="True"
       d="m 36.514216,38.705144 -0.282027,1.565261 m -1.114016,-2.072912 -0.423044,2.651076 m -1.15632,-3.525369 -0.465348,3.736888 m -1.367842,-4.033018 -0.67687,4.836801 M 30.464691,36.632229 29.928834,42.1459 m -0.374894,-0.168422 7.390372,-2.510856 m -7.368014,-2.615821 7.741703,2.47481"
       style="fill:none;stroke:#f6e509;stroke-width:0.157937px;stroke-linecap:butt;stroke-linejoin:miter;stroke-opacity:1"
       id="path1206" />
    <path
       inkstitch:zigzag_spacing_mm="0.1"
       inkstitch:satin_column="True"
       d="m 2.9556323,28.691695 8.5014047,3.31127 m -10.3802717,-2.1207 9.5245527,2.474148 m -10.60350516,-0.0186 9.72918046,0.818516 M -0.22541786,34.495717 10.136251,33.546983 m -7.9048417,3.478051 8.3513047,-3.25482 m 0.744108,0.297641 -5.8072407,4.27027 M 15.177564,32.9703 12.405773,38.49528 m 1.581223,-5.17153 -3.441486,5.02271 m 5.431967,-5.6552 -1.451005,5.841226 m 3.134543,-5.73891 -0.883625,5.404063 m 2.734588,-5.004107 -0.818516,4.446028 m 1.878864,-4.185591 -0.372052,3.832141 m 0.663938,-0.791154 c -1.500732,0.585263 -3.19314,0.940519 -5.044576,1.104939 -1.897045,0.302342 -3.542746,0.345221 -5.769278,0.280519 -1.8921757,0.0454 -12.5155316,-1.09104 -8.8991817,-6.621556 0.961076,-0.815342 1.739004,-1.671384 3.550149,-2.297824 m 13.8433157,3.934856 -0.744108,4.985505 m 3.032864,-3.843837 -3.983664,-1.233878 -4.723,1.58042 C 10.305762,34.696157 8.2826183,33.521711 9.6814823,32.403386 10.011015,32.045617 10.9049,31.687847 12.075441,31.330079"
       style="fill:none;stroke:#f6e509;stroke-width:0.157937px;stroke-linecap:butt;stroke-linejoin:miter;stroke-opacity:1"
       id="path2080"
       sodipodi:nodetypes="cccccccccccccccccccccccccccccccccccc" />
  </g>
</svg>
